<?xml version="1.0" encoding="UTF-8"?>
<svg version="1.1" xmlns="http://www.w3.org/2000/svg" width="409" height="610">
<path d="M0 0 C0.69867188 -0.00322266 1.39734375 -0.00644531 2.1171875 -0.00976562 C7.11415765 0.04208973 10.60664658 1.11582329 15 3.3125 C16.546875 3.250625 16.546875 3.250625 18.125 3.1875 C23.38900581 3.35730664 28.2045398 4.5170398 32 8.3125 C32 9.3025 32 10.2925 32 11.3125 C32.52335938 11.57417969 33.04671875 11.83585937 33.5859375 12.10546875 C34.38257813 12.50378906 35.17921875 12.90210937 36 13.3125 C37.02351562 13.80363281 38.04703125 14.29476562 39.1015625 14.80078125 C49.58957114 20.23082563 57.49779088 27.38056639 62 38.625 C62.33 39.841875 62.66 41.05875 63 42.3125 C63.29970703 43.31023437 63.29970703 43.31023437 63.60546875 44.328125 C64.85462244 48.72112187 65.28154014 52.7140111 65 57.3125 C64.67 57.6425 64.34 57.9725 64 58.3125 C63.6972309 60.07815349 63.43375518 61.85058185 63.1875 63.625 C61.93211033 71.52545981 59.74980137 79.21466168 56 86.3125 C57.2065625 87.3025 57.2065625 87.3025 58.4375 88.3125 C61.49197345 91.88846891 62.16643786 94.73107892 62 99.3125 C60.20995163 107.81522974 55.88558179 119.84732697 48.5546875 125.046875 C46 126.3125 46 126.3125 43.81640625 126.703125 C41.77349229 127.16032527 41.77349229 127.16032527 40.83984375 129.421875 C40.54207031 130.29328125 40.24429688 131.1646875 39.9375 132.0625 C38.94715892 134.90176112 38.09761856 137.17341103 36.36328125 139.64453125 C34.5192879 143.25326322 34.87096828 146.34054596 35.25 150.25 C35.37389485 151.76430682 35.49758958 153.27863002 35.62109375 154.79296875 C35.72139893 155.92677979 35.72139893 155.92677979 35.82373047 157.08349609 C35.98940304 159.17849692 36.09003142 161.26317255 36.16015625 163.36328125 C36.21042969 164.58402344 36.26070312 165.80476562 36.3125 167.0625 C36.36857422 168.69445312 36.36857422 168.69445312 36.42578125 170.359375 C37.14232862 174.04447577 38.31234876 175.71228946 41 178.3125 C43.51615721 179.38765294 43.51615721 179.38765294 46.1875 179.875 C48.85546875 180.44140625 48.85546875 180.44140625 51 181.3125 C51.80078125 183.40234375 51.80078125 183.40234375 52 185.3125 C52.62648438 185.44527344 53.25296875 185.57804688 53.8984375 185.71484375 C54.71570313 185.89144531 55.53296875 186.06804687 56.375 186.25 C57.18710937 186.42402344 57.99921875 186.59804687 58.8359375 186.77734375 C61 187.3125 61 187.3125 63 188.3125 C63 188.9725 63 189.6325 63 190.3125 C63.5878125 190.59585205 64.175625 190.8792041 64.78125 191.17114258 C66.79005839 192.20450297 68.6175809 193.33036699 70.5 194.57421875 C75.76809874 197.9009889 81.36579332 200.48418598 87 203.125 C88.06089844 203.62708984 89.12179687 204.12917969 90.21484375 204.64648438 C92.80785122 205.87290683 95.40289407 207.09478707 98 208.3125 C98 208.9725 98 209.6325 98 210.3125 C98.55171875 210.40144531 99.1034375 210.49039063 99.671875 210.58203125 C103.74282542 211.8593261 106.82432378 214.67919236 110.19921875 217.22265625 C111.81180272 218.42590928 113.44935556 219.5997929 115.14453125 220.68359375 C121.52195749 224.85294981 125.40869152 230.92578639 129.55810547 237.15820312 C131.12032233 239.49227044 132.71831407 241.79974364 134.31640625 244.109375 C140.71422471 253.48944351 145.95667763 262.45309375 149.36279297 273.29980469 C150.0319103 275.41329255 150.74698619 277.50685448 151.47265625 279.6015625 C154.19288137 287.50947743 156.65381403 295.47393607 159 303.5 C160.72595178 309.39981109 162.62309905 315.08010086 165 320.75 C167.92224732 327.7403232 170.00139499 334.86513788 171.99609375 342.16967773 C173.35396046 347.16662417 173.35396046 347.16662417 175.1015625 352.03515625 C176.21963111 354.86921711 176.66227463 357.61728509 177.125 360.625 C177.29257812 361.69363281 177.46015625 362.76226562 177.6328125 363.86328125 C177.75398438 364.67152344 177.87515625 365.47976563 178 366.3125 C172.53346141 369.45483001 166.85589673 370.75036146 160.75 372.1875 C150.426994 374.65125743 140.21310976 377.43264887 130 380.3125 C129.98598145 382.11207153 129.98598145 382.11207153 129.97167969 383.94799805 C129.61422299 423.21038213 125.76565439 460.56294355 119.17382812 499.26123047 C118.98055939 500.41397461 118.78729065 501.56671875 118.58816528 502.75439453 C118.23198781 504.87532984 117.8690411 506.99514988 117.49655151 509.11328125 C115.64670257 520.18987418 114.98391411 530.99748776 114 542.3125 C31.5 542.3125 -51 542.3125 -136 542.3125 C-136 535.3125 -136 535.3125 -133.6875 532.875 C-131 531.3125 -131 531.3125 -128 531.3125 C-127.70925155 517.84115524 -128.20713257 504.44800926 -128.9375 491 C-128.98106628 490.19665222 -129.02463257 489.39330444 -129.06951904 488.56561279 C-129.62223813 478.44421918 -129.62223813 478.44421918 -130.28076172 468.3293457 C-130.9908835 458.17640196 -131.21862364 448.06340451 -131.24023438 437.88745117 C-131.24992802 435.14536034 -131.28108247 432.40402559 -131.3125 429.66210938 C-131.37707965 418.49644454 -130.47792315 407.82260513 -128.66577148 396.8046875 C-127.83838632 391.62920714 -127.66923237 386.54352874 -128 381.3125 C-129.22332031 381.044375 -130.44664062 380.77625 -131.70703125 380.5 C-161.67732024 373.63517976 -161.67732024 373.63517976 -169 366.3125 C-168.58322503 358.78673486 -166.34807696 351.43186933 -164 344.3125 C-163.54901831 342.88816667 -163.09854262 341.46367308 -162.6484375 340.0390625 C-160.26070724 332.58354431 -157.80312264 325.56294205 -154.08203125 318.65234375 C-152.41781848 315.05355873 -151.68119012 311.30403116 -150.8125 307.44921875 C-149.94657919 304.10626484 -148.78604208 301.01612267 -147.5 297.8125 C-145.44450422 292.67069263 -144.0034361 287.61111336 -142.74609375 282.2265625 C-141.32935815 276.69313444 -139.23070129 271.39196403 -137.11328125 266.09375 C-135.90886524 263.03864597 -135.0028141 260.33794923 -134.640625 257.0625 C-133.89943923 252.72385157 -132.44412896 249.44059639 -130.4375 245.5625 C-130.08252441 244.86656738 -129.72754883 244.17063477 -129.36181641 243.45361328 C-124.83945812 234.80951108 -119.35282925 226.78999243 -112 220.3125 C-111.34 220.3125 -110.68 220.3125 -110 220.3125 C-109.67 219.3225 -109.34 218.3325 -109 217.3125 C-104.2320134 212.82122691 -98.75990761 209.41252466 -92.9453125 206.453125 C-90.93943037 205.27698528 -89.63132941 203.95243801 -88 202.3125 C-86.16796875 201.21484375 -86.16796875 201.21484375 -84.1875 200.25 C-83.54167969 199.92902344 -82.89585938 199.60804688 -82.23046875 199.27734375 C-79.53657862 198.11203576 -76.78627565 197.23560229 -74 196.3125 C-71.49138097 195.35032668 -68.99332937 194.37485026 -66.5 193.375 C-65.86191406 193.12298828 -65.22382813 192.87097656 -64.56640625 192.61132812 C-61.58288772 191.41853084 -58.69808541 190.1581881 -55.8359375 188.6953125 C-53.21062563 187.41520175 -50.97528857 186.68642048 -48.125 186.125 C-47.34382813 185.96644531 -46.56265625 185.80789062 -45.7578125 185.64453125 C-45.17773438 185.53496094 -44.59765625 185.42539063 -44 185.3125 C-44 184.6525 -44 183.9925 -44 183.3125 C-42.5437455 182.64130451 -41.08492133 181.97568193 -39.625 181.3125 C-38.81289062 180.94125 -38.00078125 180.57 -37.1640625 180.1875 C-35 179.3125 -35 179.3125 -33 179.3125 C-32.78015544 168.84545608 -32.98855212 158.49886793 -33.875 148.0625 C-33.95347168 147.09948975 -34.03194336 146.13647949 -34.11279297 145.14428711 C-34.7048299 138.66313042 -35.31856606 132.83465092 -39 127.3125 C-39 125.9925 -39 124.6725 -39 123.3125 C-40.299375 123.68375 -40.299375 123.68375 -41.625 124.0625 C-46.0724027 124.39193724 -47.6076703 123.10174886 -51 120.3125 C-57.15910501 112.87479597 -59.16044773 103.81902822 -59 94.3125 C-58.47959196 91.05994974 -57.47710349 88.26670699 -56 85.3125 C-56.66 85.3125 -57.32 85.3125 -58 85.3125 C-62.29656259 80.35481193 -62.60350938 76.29677193 -62.56640625 69.890625 C-62.57260483 68.99059753 -62.57880341 68.09057007 -62.58518982 67.16326904 C-62.59227246 65.2638049 -62.5891412 63.36427847 -62.57641602 61.46484375 C-62.56260668 58.58474891 -62.59657502 55.70794306 -62.63476562 52.828125 C-62.70826694 35.05123883 -62.70826694 35.05123883 -57 27.3125 C-56.278125 26.28125 -55.55625 25.25 -54.8125 24.1875 C-54.214375 23.56875 -53.61625 22.95 -53 22.3125 C-52.34 22.3125 -51.68 22.3125 -51 22.3125 C-51 21.6525 -51 20.9925 -51 20.3125 C-40.30988692 10.13001799 -27.25145616 7.12686892 -13 6.3125 C-13 5.3225 -13 4.3325 -13 3.3125 C-8.97404137 -0.04508659 -5.02243134 -0.11583098 0 0 Z " fill="#010101" transform="translate(206,67.6875)"/>
<path d="M0 0 C1.11084961 0.02030273 1.11084961 0.02030273 2.24414062 0.04101562 C4.05891075 0.07614021 5.87330288 0.12994028 7.6875 0.1875 C7.6875 0.5175 7.6875 0.8475 7.6875 1.1875 C2.61678099 1.89917986 -2.19458358 2.29412326 -7.3125 2.1875 C-7.3125 4.1675 -7.3125 6.1475 -7.3125 8.1875 C-7.9725 8.1875 -8.6325 8.1875 -9.3125 8.1875 C-9.6425 8.8475 -9.9725 9.5075 -10.3125 10.1875 C-11.055 10.0225 -11.7975 9.8575 -12.5625 9.6875 C-17.81659401 8.98695413 -23.02001749 9.11042501 -28.3125 9.1875 C-25.54207891 6.41707891 -23.54716195 6.78953894 -19.6875 6.5625 C-18.49898437 6.48773438 -17.31046875 6.41296875 -16.0859375 6.3359375 C-14.71308594 6.26246094 -14.71308594 6.26246094 -13.3125 6.1875 C-13.3125 5.1975 -13.3125 4.2075 -13.3125 3.1875 C-9.21148326 -0.28259109 -5.12026746 -0.17845436 0 0 Z " fill="#3E3B3E" transform="translate(206.3125,67.8125)"/>
<path d="M0 0 C0.33 0.66 0.66 1.32 1 2 C0.3125 4 0.3125 4 -1 6 C-1.58007812 6.268125 -2.16015625 6.53625 -2.7578125 6.8125 C-5.7741941 8.41002614 -7.79814997 10.57182744 -10.1875 13 C-11.50814453 14.3303125 -11.50814453 14.3303125 -12.85546875 15.6875 C-15.01833912 17.8031145 -15.01833912 17.8031145 -16 20 C-16.66 19.67 -17.32 19.34 -18 19 C-14.62695042 14.32873203 -11.31899529 9.83910692 -7 6 C-6.34 6 -5.68 6 -5 6 C-4.67 5.01 -4.34 4.02 -4 3 C-1.9375 1.3125 -1.9375 1.3125 0 0 Z " fill="#4B4949" transform="translate(101,282)"/>
<path d="M0 0 C0.33 0 0.66 0 1 0 C1.33 4.29 1.66 8.58 2 13 C1.34 13 0.68 13 0 13 C-1.28571429 4.57142857 -1.28571429 4.57142857 0 0 Z " fill="#686268" transform="translate(145,124)"/>
<path d="M0 0 C0.66 0.33 1.32 0.66 2 1 C1.06862408 2.29608947 0.1296434 3.58671632 -0.8125 4.875 C-1.33457031 5.59429687 -1.85664063 6.31359375 -2.39453125 7.0546875 C-4 9 -4 9 -7 11 C-6.42676569 7.13066838 -4.61046448 4.84777943 -2 2 C-1.34 2 -0.68 2 0 2 C0 1.34 0 0.68 0 0 Z " fill="#444444" transform="translate(155,88)"/>
<path d="M0 0 C-1.65 1.65 -3.3 3.3 -5 5 C-5 4.34 -5 3.68 -5 3 C-7.31 3 -9.62 3 -12 3 C-8.52582963 0.68388642 -4.04642977 -2.02321489 0 0 Z " fill="#6C6B6C" transform="translate(162,254)"/>
<path d="M0 0 C0.33 0 0.66 0 1 0 C1.17673419 4.5067218 1.13551182 7.96625544 -1 12 C-1.99 12.495 -1.99 12.495 -3 13 C-2.343621 8.51474352 -1.29925791 4.33085971 0 0 Z " fill="#727072" transform="translate(42,412)"/>
<path d="M0 0 C0.66 0.33 1.32 0.66 2 1 C1.01 2.485 1.01 2.485 0 4 C-0.33 4.66 -0.66 5.32 -1 6 C-1.66 5.34 -2.32 4.68 -3 4 C-3.99 4 -4.98 4 -6 4 C-3.94766315 1.7522025 -2.99332739 0.9977758 0 0 Z " fill="#4C4B4D" transform="translate(167,80)"/>
<path d="M0 0 C0.66 1.32 1.32 2.64 2 4 C1.34 4 0.68 4 0 4 C-0.33 4.66 -0.66 5.32 -1 6 C-2.32 5.34 -3.64 4.68 -5 4 C-4.34 4 -3.68 4 -3 4 C-3 3.01 -3 2.02 -3 1 C-2.01 0.67 -1.02 0.34 0 0 Z " fill="#7D7A7E" transform="translate(196,70)"/>
<path d="M0 0 C0.66 1.32 1.32 2.64 2 4 C1.34 4 0.68 4 0 4 C-0.12375 4.639375 -0.2475 5.27875 -0.375 5.9375 C-0.58125 6.618125 -0.7875 7.29875 -1 8 C-1.99 8.495 -1.99 8.495 -3 9 C-2.44271087 5.65626525 -1.64826111 2.96687001 0 0 Z " fill="#5A5859" transform="translate(69,334)"/>
<path d="" fill="#FFFFFF" transform="translate(0,0)"/>
<path d="" fill="#FFFFFF" transform="translate(0,0)"/>
<path d="" fill="#FFFFFF" transform="translate(0,0)"/>
<path d="" fill="#FFFFFF" transform="translate(0,0)"/>
<path d="" fill="#FFFFFF" transform="translate(0,0)"/>
<path d="" fill="#FFFFFF" transform="translate(0,0)"/>
<path d="" fill="#FFFFFF" transform="translate(0,0)"/>
<path d="" fill="#FFFFFF" transform="translate(0,0)"/>
<path d="" fill="#FFFFFF" transform="translate(0,0)"/>
<path d="" fill="#FFFFFF" transform="translate(0,0)"/>
<path d="" fill="#FFFFFF" transform="translate(0,0)"/>
<path d="" fill="#FFFFFF" transform="translate(0,0)"/>
<path d="" fill="#FFFFFF" transform="translate(0,0)"/>
<path d="" fill="#FFFFFF" transform="translate(0,0)"/>
<path d="" fill="#FFFFFF" transform="translate(0,0)"/>
<path d="" fill="#FFFFFF" transform="translate(0,0)"/>
<path d="" fill="#FFFFFF" transform="translate(0,0)"/>
<path d="" fill="#FFFFFF" transform="translate(0,0)"/>
<path d="" fill="#FFFFFF" transform="translate(0,0)"/>
<path d="" fill="#FFFFFF" transform="translate(0,0)"/>
<path d="" fill="#FFFFFF" transform="translate(0,0)"/>
<path d="" fill="#FFFFFF" transform="translate(0,0)"/>
<path d="" fill="#FFFFFF" transform="translate(0,0)"/>
<path d="" fill="#FFFFFF" transform="translate(0,0)"/>
<path d="" fill="#FFFFFF" transform="translate(0,0)"/>
<path d="" fill="#FFFFFF" transform="translate(0,0)"/>
<path d="" fill="#FFFFFF" transform="translate(0,0)"/>
<path d="" fill="#FFFFFF" transform="translate(0,0)"/>
<path d="" fill="#FFFFFF" transform="translate(0,0)"/>
<path d="" fill="#FFFFFF" transform="translate(0,0)"/>
<path d="" fill="#FFFFFF" transform="translate(0,0)"/>
<path d="" fill="#FFFFFF" transform="translate(0,0)"/>
<path d="" fill="#FFFFFF" transform="translate(0,0)"/>
</svg>
